<svg id="x11" width="100%" xmlns="http://www.w3.org/2000/svg" class="statediagram" style="max-width: 866.4765625px;" viewBox="4 4 866.4765625 1131" role="graphics-document document" aria-roledescription="stateDiagram"><style>#x11{font-family:"trebuchet ms",verdana,arial,sans-serif;font-size:16px;fill:#000000;}@keyframes edge-animation-frame{from{stroke-dashoffset:0;}}@keyframes dash{to{stroke-dashoffset:0;}}#x11 .edge-animation-slow{stroke-dasharray:9,5!important;stroke-dashoffset:900;animation:dash 50s linear infinite;stroke-linecap:round;}#x11 .edge-animation-fast{stroke-dasharray:9,5!important;stroke-dashoffset:900;animation:dash 20s linear infinite;stroke-linecap:round;}#x11 .error-icon{fill:#552222;}#x11 .error-text{fill:#552222;stroke:#552222;}#x11 .edge-thickness-normal{stroke-width:1px;}#x11 .edge-thickness-thick{stroke-width:3.5px;}#x11 .edge-pattern-solid{stroke-dasharray:0;}#x11 .edge-thickness-invisible{stroke-width:0;fill:none;}#x11 .edge-pattern-dashed{stroke-dasharray:3;}#x11 .edge-pattern-dotted{stroke-dasharray:2;}#x11 .marker{fill:#666;stroke:#666;}#x11 .marker.cross{stroke:#666;}#x11 svg{font-family:"trebuchet ms",verdana,arial,sans-serif;font-size:16px;}#x11 p{margin:0;}#x11 defs [id$="-barbEnd"]{fill:#000;stroke:#000;}#x11 g.stateGroup text{fill:#999;stroke:none;font-size:10px;}#x11 g.stateGroup text{fill:#000000;stroke:none;font-size:10px;}#x11 g.stateGroup .state-title{font-weight:bolder;fill:#111111;}#x11 g.stateGroup rect{fill:#eee;stroke:#999;}#x11 g.stateGroup line{stroke:#666;stroke-width:1;}#x11 .transition{stroke:#000;stroke-width:1;fill:none;}#x11 .stateGroup .composit{fill:#ffffff;border-bottom:1px;}#x11 .stateGroup .alt-composit{fill:#e0e0e0;border-bottom:1px;}#x11 .state-note{stroke:#999;fill:#666;}#x11 .state-note text{fill:#fff;stroke:none;font-size:10px;}#x11 .stateLabel .box{stroke:none;stroke-width:0;fill:#eee;opacity:0.5;}#x11 .edgeLabel .label rect{fill:#eee;opacity:0.5;}#x11 .edgeLabel{background-color:white;text-align:center;}#x11 .edgeLabel p{background-color:white;}#x11 .edgeLabel rect{opacity:0.5;background-color:white;fill:white;}#x11 .edgeLabel .label text{fill:#000000;}#x11 .label div .edgeLabel{color:#000000;}#x11 .stateLabel text{fill:#111111;font-size:10px;font-weight:bold;}#x11 .node circle.state-start{fill:#222;stroke:#222;}#x11 .node .fork-join{fill:#222;stroke:#222;}#x11 .node circle.state-end{fill:hsl(0, 0%, 83.3333333333%);stroke:#ffffff;stroke-width:1.5;}#x11 .end-state-inner{fill:#ffffff;stroke-width:1.5;}#x11 .node rect{fill:#eee;stroke:#000;stroke-width:1px;}#x11 .node polygon{fill:#eee;stroke:#000;stroke-width:1px;}#x11 [id$="-barbEnd"]{fill:#666;}#x11 .statediagram-cluster rect{fill:#eee;stroke:#000;stroke-width:1px;}#x11 .cluster-label,#x11 .nodeLabel{color:#111111;}#x11 .statediagram-cluster rect.outer{rx:5px;ry:5px;}#x11 .statediagram-state .divider{stroke:#000;}#x11 .statediagram-state .title-state{rx:5px;ry:5px;}#x11 .statediagram-cluster.statediagram-cluster .inner{fill:#ffffff;}#x11 .statediagram-cluster.statediagram-cluster-alt .inner{fill:#f4f4f4;}#x11 .statediagram-cluster .inner{rx:0;ry:0;}#x11 .statediagram-state rect.basic{rx:5px;ry:5px;}#x11 .statediagram-state rect.divider{stroke-dasharray:10,10;fill:#f4f4f4;}#x11 .note-edge{stroke-dasharray:5;}#x11 .statediagram-note rect{fill:#666;stroke:#999;stroke-width:1px;rx:0;ry:0;}#x11 .statediagram-note rect{fill:#666;stroke:#999;stroke-width:1px;rx:0;ry:0;}#x11 .statediagram-note text{fill:#fff;}#x11 .statediagram-note .nodeLabel{color:#fff;}#x11 .statediagram .edgeLabel{color:red;}#x11 [id$="-dependencyStart"],#x11 [id$="-dependencyEnd"]{fill:#666;stroke:#666;stroke-width:1;}#x11 .statediagramTitleText{text-anchor:middle;font-size:18px;fill:#000000;}#x11 [data-look="neo"].statediagram-cluster rect{fill:#eee;stroke:url(#x11-gradient);stroke-width:1;}#x11 [data-look="neo"].statediagram-cluster rect.outer{rx:5px;ry:5px;filter:drop-shadow( 1px 2px 2px rgba(185,185,185,1));}#x11 .node .neo-node{stroke:#999;}#x11 [data-look="neo"].node rect,#x11 [data-look="neo"].cluster rect,#x11 [data-look="neo"].node polygon{stroke:url(#x11-gradient);filter:drop-shadow( 1px 2px 2px rgba(185,185,185,1));}#x11 [data-look="neo"].swimlane.cluster rect{filter:none;}#x11 [data-look="neo"].node path{stroke:url(#x11-gradient);stroke-width:1px;}#x11 [data-look="neo"].node .outer-path{filter:drop-shadow( 1px 2px 2px rgba(185,185,185,1));}#x11 [data-look="neo"].node .neo-line path{stroke:#999;filter:none;}#x11 [data-look="neo"].node circle{stroke:url(#x11-gradient);filter:drop-shadow( 1px 2px 2px rgba(185,185,185,1));}#x11 [data-look="neo"].node circle .state-start{fill:#000000;}#x11 [data-look="neo"].icon-shape .icon{fill:url(#x11-gradient);filter:drop-shadow( 1px 2px 2px rgba(185,185,185,1));}#x11 [data-look="neo"].icon-shape .icon-neo path{stroke:url(#x11-gradient);filter:drop-shadow( 1px 2px 2px rgba(185,185,185,1));}#x11 :root{--mermaid-font-family:"trebuchet ms",verdana,arial,sans-serif;}</style><g><defs><marker id="x11_stateDiagram-barbEnd" refX="19" refY="7" markerWidth="20" markerHeight="14" markerUnits="strokeWidth" orient="auto"><path d="M 19,7 L11,14 L13,7 L11,0 Z"></path></marker></defs><defs><marker id="x11_stateDiagram-barbEnd-margin" refX="17" refY="7" markerWidth="20" markerHeight="14" markerUnits="userSpaceOnUse" orient="auto"><path d="M 19,7 L11,14 L13,7 L11,0 Z" fill="#000"></path></marker></defs><g class="root"><g class="clusters"><g class="note-cluster" id="x11-state-DETECTED----parent-9"><rect x="619.0546875" y="264" width="243.421875" height="273" fill="none"></rect></g></g><g class="edges edgePaths"><path d="M531.875,26L531.875,148.5" id="x11-edge0" class="edge-thickness-normal edge-pattern-solid transition" style="stroke-dasharray: 0 0 122.5 0; stroke-dashoffset: 0;fill:none;;;fill:none" data-edge="true" data-et="edge" data-id="edge0" data-points="W3sieCI6NTMxLjg3NSwieSI6MjZ9LHsieCI6NTMxLjg3NSwieSI6MTU0fV0=" data-look="neo" marker-end="url(#x11_stateDiagram-barbEnd-margin)"></path><path d="M497.075,194L497.075,206.92893218813452Q497.075,214 490.0039321881345,214L202.2038803118655,214Q195.13281250000003,214 195.13281250000003,221.07106781186548L195.13281250000003,571.5" id="x11-edge1" class="edge-thickness-normal edge-pattern-solid transition" style="stroke-dasharray: 0 0 674.1138916015625 0; stroke-dashoffset: 0;fill:none;;;fill:none" data-edge="true" data-et="edge" data-id="edge1" data-points="W3sieCI6NDk3LjA3NSwieSI6MTk0fSx7IngiOjQ5Ny4wNzUsInkiOjIxNH0seyJ4IjoxOTUuMTMyODEyNTAwMDAwMDMsInkiOjIxNH0seyJ4IjoxOTUuMTMyODEyNTAwMDAwMDMsInkiOjU3N31d" data-look="neo" marker-end="url(#x11_stateDiagram-barbEnd-margin)"></path><path d="M217.43229166666669,617L217.43229166666669,629.9289321881345Q217.43229166666669,637 224.50335947853216,637L271.6945571881345,637Q278.765625,637 278.765625,644.0710678118655L278.765625,739.5" id="x11-edge2" class="edge-thickness-normal edge-pattern-solid transition" style="stroke-dasharray: 0 0 178.50503540039062 0; stroke-dashoffset: 0;fill:none;;;fill:none" data-edge="true" data-et="edge" data-id="edge2" data-points="W3sieCI6MjE3LjQzMjI5MTY2NjY2NjY5LCJ5Ijo2MTd9LHsieCI6MjE3LjQzMjI5MTY2NjY2NjY5LCJ5Ijo2Mzd9LHsieCI6Mjc4Ljc2NTYyNSwieSI6NjM3fSx7IngiOjI3OC43NjU2MjUsInkiOjc0NX1d" data-look="neo" marker-end="url(#x11_stateDiagram-barbEnd-margin)"></path><path d="M278.765625,785L278.765625,861.9289321881345Q278.765625,869 285.8366928118655,869L348.7909113548012,869Q355.8619791666667,869 355.8619791666667,876.0710678118655L355.8619791666667,883.5" id="x11-edge3" class="edge-thickness-normal edge-pattern-solid transition" style="stroke-dasharray: 0 0 170.26809692382812 0; stroke-dashoffset: 0;fill:none;;;fill:none" data-edge="true" data-et="edge" data-id="edge3" data-points="W3sieCI6Mjc4Ljc2NTYyNSwieSI6Nzg1fSx7IngiOjI3OC43NjU2MjUsInkiOjg2OX0seyJ4IjozNTUuODYxOTc5MTY2NjY2NywieSI6ODY5fSx7IngiOjM1NS44NjE5NzkxNjY2NjY3LCJ5Ijo4ODl9XQ==" data-look="neo" marker-end="url(#x11_stateDiagram-barbEnd-margin)"></path><path d="M375.1953125,929L375.1953125,1027.5" id="x11-edge4" class="edge-thickness-normal edge-pattern-solid transition" style="stroke-dasharray: 0 0 98.5 0; stroke-dashoffset: 0;fill:none;;;fill:none" data-edge="true" data-et="edge" data-id="edge4" data-points="W3sieCI6Mzc1LjE5NTMxMjUsInkiOjkyOX0seyJ4IjozNzUuMTk1MzEyNSwieSI6MTAzM31d" data-look="neo" marker-end="url(#x11_stateDiagram-barbEnd-margin)"></path><path d="M394.52864583333337,889L394.52864583333337,876.0710678118655Q394.52864583333337,869 401.59971364519885,869L464.5539321881345,869Q471.625,869 471.625,861.9289321881345L471.625,837L471.625,765L471.625,597L471.625,395.5L471.625,241.07106781186548Q471.625,234 478.6960678118655,234L513.2039321881346,234Q520.275,234 520.275,226.92893218813452L520.275,199.5" id="x11-edge5" class="edge-thickness-normal edge-pattern-solid transition" style="stroke-dasharray: 0 0 804.58984375 0; stroke-dashoffset: 0;fill:none;;;fill:none" data-edge="true" data-et="edge" data-id="edge5" data-points="W3sieCI6Mzk0LjUyODY0NTgzMzMzMzM3LCJ5Ijo4ODl9LHsieCI6Mzk0LjUyODY0NTgzMzMzMzM3LCJ5Ijo4Njl9LHsieCI6NDcxLjYyNSwieSI6ODY5fSx7IngiOjQ3MS42MjUsInkiOjgzN30seyJ4Ijo0NzEuNjI1LCJ5Ijo3NjV9LHsieCI6NDcxLjYyNSwieSI6NTk3fSx7IngiOjQ3MS42MjUsInkiOjM5NS41fSx7IngiOjQ3MS42MjUsInkiOjIzNH0seyJ4Ijo1MjAuMjc1LCJ5IjoyMzR9LHsieCI6NTIwLjI3NSwieSI6MTk0fV0=" data-look="neo" marker-end="url(#x11_stateDiagram-barbEnd-margin)"></path><path d="M543.475,194L543.475,226.92893218813452Q543.475,234 550.5460678118654,234L585.0539321881345,234Q592.125,234 592.125,241.07106781186548L592.125,395.5L592.125,597L592.125,681L592.125,837L592.125,909L592.125,981L592.125,1005.9289321881345Q592.125,1013 585.0539321881345,1013L411.2663803118655,1013Q404.1953125,1013 404.1953125,1020.0710678118655L404.1953125,1027.5" id="x11-edge6" class="edge-thickness-normal edge-pattern-solid transition" style="stroke-dasharray: 0 0 1059.4232177734375 0; stroke-dashoffset: 0;fill:none;;;fill:none" data-edge="true" data-et="edge" data-id="edge6" data-points="W3sieCI6NTQzLjQ3NSwieSI6MTk0fSx7IngiOjU0My40NzUsInkiOjIzNH0seyJ4Ijo1OTIuMTI1LCJ5IjoyMzR9LHsieCI6NTkyLjEyNSwieSI6Mzk1LjV9LHsieCI6NTkyLjEyNSwieSI6NTk3fSx7IngiOjU5Mi4xMjUsInkiOjY4MX0seyJ4Ijo1OTIuMTI1LCJ5Ijo4Mzd9LHsieCI6NTkyLjEyNSwieSI6OTA5fSx7IngiOjU5Mi4xMjUsInkiOjk4MX0seyJ4Ijo1OTIuMTI1LCJ5IjoxMDEzfSx7IngiOjQwNC4xOTUzMTI1LCJ5IjoxMDEzfSx7IngiOjQwNC4xOTUzMTI1LCJ5IjoxMDMzfV0=" data-look="neo" marker-end="url(#x11_stateDiagram-barbEnd-margin)"></path><path d="M172.83333333333337,617L172.83333333333337,629.9289321881345Q172.83333333333337,637 165.7622655214679,637L118.57106781186548,637Q111.5,637 111.5,644.0710678118655L111.5,681L111.5,765L111.5,909L111.5,981L111.5,1005.9289321881345Q111.5,1013 118.57106781186548,1013L339.1242446881345,1013Q346.1953125,1013 346.1953125,1020.0710678118655L346.1953125,1027.5" id="x11-edge7" class="edge-thickness-normal edge-pattern-solid transition" style="stroke-dasharray: 0 0 695.8721313476562 0; stroke-dashoffset: 0;fill:none;;;fill:none" data-edge="true" data-et="edge" data-id="edge7" data-points="W3sieCI6MTcyLjgzMzMzMzMzMzMzMzM3LCJ5Ijo2MTd9LHsieCI6MTcyLjgzMzMzMzMzMzMzMzM3LCJ5Ijo2Mzd9LHsieCI6MTExLjUsInkiOjYzN30seyJ4IjoxMTEuNSwieSI6NjgxfSx7IngiOjExMS41LCJ5Ijo3NjV9LHsieCI6MTExLjUsInkiOjkwOX0seyJ4IjoxMTEuNSwieSI6OTgxfSx7IngiOjExMS41LCJ5IjoxMDEzfSx7IngiOjM0Ni4xOTUzMTI1LCJ5IjoxMDEzfSx7IngiOjM0Ni4xOTUzMTI1LCJ5IjoxMDMzfV0=" data-look="neo" marker-end="url(#x11_stateDiagram-barbEnd-margin)"></path><path d="M375.1953125,1073L375.1953125,1107.5" id="x11-edge8" class="edge-thickness-normal edge-pattern-solid transition" style="stroke-dasharray: 0 0 34.5 0; stroke-dashoffset: 0;fill:none;;;fill:none" data-edge="true" data-et="edge" data-id="edge8" data-points="W3sieCI6Mzc1LjE5NTMxMjUsInkiOjEwNzN9LHsieCI6Mzc1LjE5NTMxMjUsInkiOjExMTN9XQ==" data-look="neo" marker-end="url(#x11_stateDiagram-barbEnd-margin)"></path><path d="M566.675,194L566.675,206.92893218813452Q566.675,214 573.7460678118655,214L733.6945571881345,214Q740.765625,214 740.765625,221.07106781186548L740.765625,254L740.765625,363" id="x11-DETECTED-DETECTED----note-9" class="edge-thickness-normal edge-pattern-dashed transition note-edge" style="stroke-dasharray: 0 0 2 2 2 2 2 2 2 2 2 2 2 2 2 2 2 2 2 2 2 2 2 2 2 2 2 2 2 2 2 2 2 2 2 2 2 2 2 2 2 2 2 2 2 2 2 2 2 2 2 2 2 2 2 2 2 2 2 2 2 2 2 2 2 2 2 2 2 2 2 2 2 2 2 2 2 2 2 2 2 2 2 2 2 2 2 2 2 2 2 2 2 2 2 2 2 2 2 2 2 2 2 2 2 2 2 2 2 2 2 2 2 2 2 2 2 2 2 2 2 2 2 2 2 2 2 2 2 2 2 2 2 2 2 2 2 2 2 2 2 2 2 2 2 2 2 2 2 2 2 2 2 2 2 2 2 2 2 2 2 2 2 2 2 2 2 2 2 2 0; stroke-dashoffset: 0;fill:none;;;fill:none" data-edge="true" data-et="edge" data-id="DETECTED-DETECTED----note-9" data-points="W3sieCI6NTY2LjY3NSwieSI6MTk0fSx7IngiOjU2Ni42NzUsInkiOjIxNH0seyJ4Ijo3NDAuNzY1NjI1LCJ5IjoyMTR9LHsieCI6NzQwLjc2NTYyNSwieSI6MjU0fSx7IngiOjc0MC43NjU2MjUsInkiOjM2M31d" data-look="neo"></path></g><g class="edgeLabels"><g class="edgeLabel" transform="translate(531.875, 90)"><g class="label" data-id="edge0" transform="translate(-100, -24)"><foreignObject width="200" height="48"><div xmlns="http://www.w3.org/1999/xhtml" class="labelBkg" style="display: table; white-space: break-spaces; line-height: 1.5; max-width: 200px; text-align: center; width: 200px;"><span class="edgeLabel"><p>SOS, cadence anomaly or manual</p></span></div></foreignObject></g></g><g class="edgeLabel" transform="translate(195.13281250000003, 395.5)"><g class="label" data-id="edge1" transform="translate(-100, -24)"><foreignObject width="200" height="48"><div xmlns="http://www.w3.org/1999/xhtml" class="labelBkg" style="display: table; white-space: break-spaces; line-height: 1.5; max-width: 200px; text-align: center; width: 200px;"><span class="edgeLabel"><p>acknowledge [Operator or trip Guide]</p></span></div></foreignObject></g></g><g class="edgeLabel" transform="translate(278.6953125, 681)"><g class="label" data-id="edge2" transform="translate(-72.9296875, -12)"><foreignObject width="145.859375" height="24"><div xmlns="http://www.w3.org/1999/xhtml" class="labelBkg" style="display: table-cell; white-space: nowrap; line-height: 1.5; max-width: 200px; text-align: center;"><span class="edgeLabel"><p>start response [note]</p></span></div></foreignObject></g></g><g class="edgeLabel" transform="translate(278.296875, 837)"><g class="label" data-id="edge3" transform="translate(-48.03125, -12)"><foreignObject width="96.0625" height="24"><div xmlns="http://www.w3.org/1999/xhtml" class="labelBkg" style="display: table-cell; white-space: nowrap; line-height: 1.5; max-width: 200px; text-align: center;"><span class="edgeLabel"><p>resolve [note]</p></span></div></foreignObject></g></g><g class="edgeLabel" transform="translate(375.109375, 981)"><g class="label" data-id="edge4" transform="translate(-40.9140625, -12)"><foreignObject width="81.828125" height="24"><div xmlns="http://www.w3.org/1999/xhtml" class="labelBkg" style="display: table-cell; white-space: nowrap; line-height: 1.5; max-width: 200px; text-align: center;"><span class="edgeLabel"><p>close [note]</p></span></div></foreignObject></g></g><g class="edgeLabel" transform="translate(471.625, 681)"><g class="label" data-id="edge5" transform="translate(-100, -24)"><foreignObject width="200" height="48"><div xmlns="http://www.w3.org/1999/xhtml" class="labelBkg" style="display: table; white-space: break-spaces; line-height: 1.5; max-width: 200px; text-align: center; width: 200px;"><span class="edgeLabel"><p>new device event in window, reopen</p></span></div></foreignObject></g></g><g class="edgeLabel" transform="translate(591.7578125, 765)"><g class="label" data-id="edge6" transform="translate(-99.1328125, -12)"><foreignObject width="198.265625" height="24"><div xmlns="http://www.w3.org/1999/xhtml" class="labelBkg" style="display: table-cell; white-space: nowrap; line-height: 1.5; max-width: 200px; text-align: center;"><span class="edgeLabel"><p>dismiss [SUSPECTED only]</p></span></div></foreignObject></g></g><g class="edgeLabel" transform="translate(111.1328125, 837)"><g class="label" data-id="edge7" transform="translate(-99.1328125, -12)"><foreignObject width="198.265625" height="24"><div xmlns="http://www.w3.org/1999/xhtml" class="labelBkg" style="display: table-cell; white-space: nowrap; line-height: 1.5; max-width: 200px; text-align: center;"><span class="edgeLabel"><p>dismiss [SUSPECTED only]</p></span></div></foreignObject></g></g></g><g class="nodes"><g class="node default" id="x11-state-root_start-0" data-look="neo" transform="translate(531.875, 19)"><circle class="state-start" r="7" width="14" height="14"></circle></g><g class="node  statediagram-state" id="x11-state-DETECTED-9" data-look="neo" transform="translate(531.875, 174)"><rect class="basic label-container" style="" rx="5" ry="5" x="-68" y="-20" width="136" height="40"></rect><g class="label" style="" transform="translate(-60, -12)"><rect></rect><foreignObject width="120" height="24"><div xmlns="http://www.w3.org/1999/xhtml" style="display: table; white-space: nowrap; line-height: 1.5; max-width: 120px; text-align: center; width: 120px;"><span class="nodeLabel markdown-node-label"><p>DETECTED</p></span></div></foreignObject></g></g><g class="node  statediagram-state" id="x11-state-ACKNOWLEDGED-7" data-look="neo" transform="translate(195.13281250000003, 597)"><rect class="basic label-container" style="" rx="5" ry="5" x="-76.8984375" y="-20" width="153.796875" height="40"></rect><g class="label" style="" transform="translate(-68.8984375, -12)"><rect></rect><foreignObject width="137.796875" height="24"><div xmlns="http://www.w3.org/1999/xhtml" style="display: table; white-space: break-spaces; line-height: 1.5; max-width: 120px; text-align: center; width: 120px;"><span class="nodeLabel markdown-node-label"><p>ACKNOWLEDGED</p></span></div></foreignObject></g></g><g class="node  statediagram-state" id="x11-state-IN_PROGRESS-3" data-look="neo" transform="translate(278.765625, 765)"><rect class="basic label-container" style="" rx="5" ry="5" x="-68" y="-20" width="136" height="40"></rect><g class="label" style="" transform="translate(-60, -12)"><rect></rect><foreignObject width="120" height="24"><div xmlns="http://www.w3.org/1999/xhtml" style="display: table; white-space: nowrap; line-height: 1.5; max-width: 120px; text-align: center; width: 120px;"><span class="nodeLabel markdown-node-label"><p>IN_PROGRESS</p></span></div></foreignObject></g></g><g class="node  statediagram-state" id="x11-state-RESOLVED-5" data-look="neo" transform="translate(375.1953125, 909)"><rect class="basic label-container" style="" rx="5" ry="5" x="-68" y="-20" width="136" height="40"></rect><g class="label" style="" transform="translate(-60, -12)"><rect></rect><foreignObject width="120" height="24"><div xmlns="http://www.w3.org/1999/xhtml" style="display: table; white-space: nowrap; line-height: 1.5; max-width: 120px; text-align: center; width: 120px;"><span class="nodeLabel markdown-node-label"><p>RESOLVED</p></span></div></foreignObject></g></g><g class="node  statediagram-state" id="x11-state-CLOSED-8" data-look="neo" transform="translate(375.1953125, 1053)"><rect class="basic label-container" style="" rx="5" ry="5" x="-68" y="-20" width="136" height="40"></rect><g class="label" style="" transform="translate(-60, -12)"><rect></rect><foreignObject width="120" height="24"><div xmlns="http://www.w3.org/1999/xhtml" style="display: table; white-space: nowrap; line-height: 1.5; max-width: 120px; text-align: center; width: 120px;"><span class="nodeLabel markdown-node-label"><p>CLOSED</p></span></div></foreignObject></g></g><g class="node default" id="x11-state-root_end-8" data-look="neo" transform="translate(375.1953125, 1120)"><g class="outer-path"><path d="M7 0 C7 0.40517908122283747, 6.964012880168563 0.816513743121899, 6.893654271085456 1.2155372436685123 C6.823295662002349 1.6145607442151257, 6.716427752933756 2.013397210557766, 6.5778483455013586 2.394141003279681 C6.439268938068961 2.7748847960015954, 6.26476736710249 3.149104622578984, 6.062177826491071 3.4999999999999996 C5.859588285879653 3.8508953774210153, 5.622755194947063 4.189128084166967, 5.362311101832846 4.499513267805774 C5.10186700871863 4.809898451444582, 4.809898451444583 5.10186700871863, 4.499513267805775 5.362311101832846 C4.189128084166968 5.622755194947063, 3.8508953774210166 5.859588285879652, 3.500000000000001 6.06217782649107 C3.149104622578985 6.264767367102489, 2.7748847960015963 6.439268938068961, 2.3941410032796817 6.5778483455013586 C2.013397210557767 6.716427752933756, 1.6145607442151264 6.823295662002349, 1.2155372436685128 6.893654271085456 C0.8165137431218992 6.964012880168563, 0.4051790812228379 7, 4.286263797015736e-16 7 C-0.405179081222837 7, -0.8165137431218985 6.964012880168563, -1.2155372436685121 6.893654271085456 C-1.6145607442151257 6.823295662002349, -2.0133972105577667 6.716427752933756, -2.394141003279681 6.5778483455013586 C-2.774884796001595 6.439268938068961, -3.149104622578983 6.26476736710249, -3.4999999999999982 6.062177826491071 C-3.8508953774210135 5.859588285879653, -4.189128084166966 5.6227551949470636, -4.499513267805773 5.362311101832848 C-4.809898451444581 5.101867008718632, -5.101867008718628 4.809898451444586, -5.3623111018328435 4.499513267805779 C-5.622755194947059 4.189128084166971, -5.859588285879649 3.8508953774210206, -6.062177826491068 3.5000000000000053 C-6.264767367102486 3.14910462257899, -6.439268938068958 2.774884796001602, -6.577848345501356 2.394141003279688 C-6.716427752933754 2.0133972105577738, -6.823295662002347 1.614560744215134, -6.893654271085454 1.215537243668521 C-6.9640128801685615 0.816513743121908, -6.999999999999999 0.4051790812228472, -7 1.0183126166254463e-14 C-7.000000000000001 -0.40517908122282686, -6.964012880168565 -0.8165137431218878, -6.893654271085459 -1.215537243668501 C-6.823295662002352 -1.6145607442151142, -6.716427752933759 -2.0133972105577542, -6.577848345501363 -2.394141003279669 C-6.439268938068967 -2.7748847960015834, -6.264767367102496 -3.149104622578972, -6.062177826491078 -3.4999999999999876 C-5.859588285879661 -3.8508953774210033, -5.6227551949470715 -4.1891280841669545, -5.362311101832856 -4.499513267805763 C-5.10186700871864 -4.809898451444571, -4.809898451444594 -5.10186700871862, -4.499513267805787 -5.362311101832836 C-4.189128084166979 -5.622755194947053, -3.850895377421028 -5.859588285879643, -3.5000000000000133 -6.062177826491062 C-3.1491046225789985 -6.264767367102482, -2.774884796001611 -6.439268938068954, -2.3941410032796973 -6.577848345501353 C-2.0133972105577835 -6.716427752933752, -1.6145607442151435 -6.823295662002345, -1.2155372436685306 -6.893654271085453 C-0.8165137431219176 -6.9640128801685615, -0.40517908122285695 -6.999999999999999, -1.9937625952807352e-14 -7 C0.4051790812228171 -7.000000000000001, 0.8165137431218781 -6.964012880168565, 1.2155372436684913 -6.89365427108546 C1.6145607442151044 -6.823295662002354, 2.013397210557745 -6.716427752933763, 2.3941410032796595 -6.5778483455013665 C2.774884796001574 -6.43926893806897, 3.149104622578963 -6.2647673671025, 3.499999999999979 -6.062177826491083 C3.8508953774209953 -5.859588285879665, 4.189128084166947 -5.622755194947077, 4.499513267805756 -5.362311101832862 C4.809898451444564 -5.1018670087186475, 5.101867008718613 -4.809898451444602, 5.362311101832829 -4.499513267805796 C5.622755194947046 -4.189128084166989, 5.859588285879637 -3.8508953774210393, 6.062177826491056 -3.500000000000025 C6.2647673671024755 -3.1491046225790105, 6.439268938068949 -2.774884796001623, 6.577848345501348 -2.3941410032797092 C6.716427752933747 -2.0133972105577955, 6.823295662002342 -1.6145607442151562, 6.893654271085451 -1.2155372436685434 C6.96401288016856 -0.8165137431219307, 6.982275711847575 -0.2025895406114567, 7 -3.2800750208310675e-14 C7.017724288152425 0.2025895406113911, 7.017724288152424 -0.2025895406114242, 7 0" stroke="none" stroke-width="0" fill="#eee" style=""></path><path d="M7 0 C7 0.40517908122283747, 6.964012880168563 0.816513743121899, 6.893654271085456 1.2155372436685123 C6.823295662002349 1.6145607442151257, 6.716427752933756 2.013397210557766, 6.5778483455013586 2.394141003279681 C6.439268938068961 2.7748847960015954, 6.26476736710249 3.149104622578984, 6.062177826491071 3.4999999999999996 C5.859588285879653 3.8508953774210153, 5.622755194947063 4.189128084166967, 5.362311101832846 4.499513267805774 C5.10186700871863 4.809898451444582, 4.809898451444583 5.10186700871863, 4.499513267805775 5.362311101832846 C4.189128084166968 5.622755194947063, 3.8508953774210166 5.859588285879652, 3.500000000000001 6.06217782649107 C3.149104622578985 6.264767367102489, 2.7748847960015963 6.439268938068961, 2.3941410032796817 6.5778483455013586 C2.013397210557767 6.716427752933756, 1.6145607442151264 6.823295662002349, 1.2155372436685128 6.893654271085456 C0.8165137431218992 6.964012880168563, 0.4051790812228379 7, 4.286263797015736e-16 7 C-0.405179081222837 7, -0.8165137431218985 6.964012880168563, -1.2155372436685121 6.893654271085456 C-1.6145607442151257 6.823295662002349, -2.0133972105577667 6.716427752933756, -2.394141003279681 6.5778483455013586 C-2.774884796001595 6.439268938068961, -3.149104622578983 6.26476736710249, -3.4999999999999982 6.062177826491071 C-3.8508953774210135 5.859588285879653, -4.189128084166966 5.6227551949470636, -4.499513267805773 5.362311101832848 C-4.809898451444581 5.101867008718632, -5.101867008718628 4.809898451444586, -5.3623111018328435 4.499513267805779 C-5.622755194947059 4.189128084166971, -5.859588285879649 3.8508953774210206, -6.062177826491068 3.5000000000000053 C-6.264767367102486 3.14910462257899, -6.439268938068958 2.774884796001602, -6.577848345501356 2.394141003279688 C-6.716427752933754 2.0133972105577738, -6.823295662002347 1.614560744215134, -6.893654271085454 1.215537243668521 C-6.9640128801685615 0.816513743121908, -6.999999999999999 0.4051790812228472, -7 1.0183126166254463e-14 C-7.000000000000001 -0.40517908122282686, -6.964012880168565 -0.8165137431218878, -6.893654271085459 -1.215537243668501 C-6.823295662002352 -1.6145607442151142, -6.716427752933759 -2.0133972105577542, -6.577848345501363 -2.394141003279669 C-6.439268938068967 -2.7748847960015834, -6.264767367102496 -3.149104622578972, -6.062177826491078 -3.4999999999999876 C-5.859588285879661 -3.8508953774210033, -5.6227551949470715 -4.1891280841669545, -5.362311101832856 -4.499513267805763 C-5.10186700871864 -4.809898451444571, -4.809898451444594 -5.10186700871862, -4.499513267805787 -5.362311101832836 C-4.189128084166979 -5.622755194947053, -3.850895377421028 -5.859588285879643, -3.5000000000000133 -6.062177826491062 C-3.1491046225789985 -6.264767367102482, -2.774884796001611 -6.439268938068954, -2.3941410032796973 -6.577848345501353 C-2.0133972105577835 -6.716427752933752, -1.6145607442151435 -6.823295662002345, -1.2155372436685306 -6.893654271085453 C-0.8165137431219176 -6.9640128801685615, -0.40517908122285695 -6.999999999999999, -1.9937625952807352e-14 -7 C0.4051790812228171 -7.000000000000001, 0.8165137431218781 -6.964012880168565, 1.2155372436684913 -6.89365427108546 C1.6145607442151044 -6.823295662002354, 2.013397210557745 -6.716427752933763, 2.3941410032796595 -6.5778483455013665 C2.774884796001574 -6.43926893806897, 3.149104622578963 -6.2647673671025, 3.499999999999979 -6.062177826491083 C3.8508953774209953 -5.859588285879665, 4.189128084166947 -5.622755194947077, 4.499513267805756 -5.362311101832862 C4.809898451444564 -5.1018670087186475, 5.101867008718613 -4.809898451444602, 5.362311101832829 -4.499513267805796 C5.622755194947046 -4.189128084166989, 5.859588285879637 -3.8508953774210393, 6.062177826491056 -3.500000000000025 C6.2647673671024755 -3.1491046225790105, 6.439268938068949 -2.774884796001623, 6.577848345501348 -2.3941410032797092 C6.716427752933747 -2.0133972105577955, 6.823295662002342 -1.6145607442151562, 6.893654271085451 -1.2155372436685434 C6.96401288016856 -0.8165137431219307, 6.982275711847575 -0.2025895406114567, 7 -3.2800750208310675e-14 C7.017724288152425 0.2025895406113911, 7.017724288152424 -0.2025895406114242, 7 0" stroke="#666" stroke-width="2" fill="none" stroke-dasharray="0 0" style=""></path><g><path d="M2.5 0 C2.5 0.14470681472244193, 2.487147457203058 0.29161205111496386, 2.46201938253052 0.4341204441673258 C2.436891307857982 0.5766288372196877, 2.3987241974763416 0.7190704323420595, 2.3492315519647713 0.8550503583141718 C2.299738906453201 0.991030284286284, 2.2374169168223177 1.124680222349637, 2.165063509461097 1.2499999999999998 C2.092710102099876 1.3753197776503625, 2.0081268553382365 1.496117172916774, 1.915111107797445 1.6069690242163481 C1.8220953602566536 1.7178208755159223, 1.7178208755159226 1.8220953602566536, 1.6069690242163484 1.915111107797445 C1.4961171729167742 2.0081268553382365, 1.375319777650363 2.0927101020998755, 1.2500000000000002 2.1650635094610964 C1.1246802223496375 2.2374169168223172, 0.9910302842862845 2.2997389064532, 0.8550503583141721 2.349231551964771 C0.7190704323420597 2.3987241974763416, 0.576628837219688 2.436891307857982, 0.43412044416732604 2.46201938253052 C0.291612051114964 2.487147457203058, 0.14470681472244212 2.5, 1.5308084989341916e-16 2.5 C-0.1447068147224418 2.5, -0.2916120511149638 2.487147457203058, -0.43412044416732576 2.46201938253052 C-0.5766288372196877 2.436891307857982, -0.7190704323420595 2.3987241974763416, -0.8550503583141718 2.3492315519647713 C-0.991030284286284 2.299738906453201, -1.124680222349637 2.2374169168223177, -1.2499999999999996 2.165063509461097 C-1.375319777650362 2.092710102099876, -1.4961171729167733 2.008126855338237, -1.6069690242163475 1.9151111077974459 C-1.7178208755159217 1.8220953602566548, -1.822095360256653 1.7178208755159234, -1.9151111077974443 1.6069690242163495 C-2.0081268553382357 1.4961171729167755, -2.0927101020998746 1.3753197776503645, -2.1650635094610955 1.250000000000002 C-2.2374169168223164 1.1246802223496395, -2.2997389064531992 0.9910302842862865, -2.34923155196477 0.8550503583141743 C-2.3987241974763407 0.7190704323420621, -2.436891307857981 0.5766288372196907, -2.4620193825305194 0.434120444167329 C-2.487147457203058 0.29161205111496724, -2.5 0.14470681472244545, -2.5 3.636830773662308e-15 C-2.5 -0.14470681472243818, -2.4871474572030587 -0.2916120511149599, -2.4620193825305208 -0.4341204441673218 C-2.436891307857983 -0.5766288372196837, -2.398724197476343 -0.7190704323420553, -2.3492315519647726 -0.8550503583141675 C-2.2997389064532023 -0.9910302842862798, -2.23741691682232 -1.1246802223496328, -2.165063509461099 -1.2499999999999956 C-2.092710102099878 -1.3753197776503583, -2.00812685533824 -1.4961171729167695, -1.9151111077974488 -1.606969024216344 C-1.8220953602566576 -1.7178208755159183, -1.7178208755159263 -1.82209536025665, -1.6069690242163523 -1.9151111077974416 C-1.4961171729167784 -2.0081268553382334, -1.3753197776503672 -2.0927101020998724, -1.2500000000000047 -2.1650635094610937 C-1.1246802223496422 -2.237416916822315, -0.9910302842862897 -2.299738906453198, -0.8550503583141776 -2.3492315519647686 C-0.7190704323420656 -2.3987241974763394, -0.5766288372196942 -2.4368913078579806, -0.43412044416733236 -2.462019382530519 C-0.29161205111497057 -2.4871474572030574, -0.1447068147224489 -2.4999999999999996, -7.120580697431198e-15 -2.5 C0.14470681472243463 -2.5000000000000004, 0.29161205111495647 -2.487147457203059, 0.4341204441673183 -2.4620193825305217 C0.5766288372196802 -2.436891307857984, 0.7190704323420518 -2.3987241974763442, 0.8550503583141642 -2.349231551964774 C0.9910302842862766 -2.2997389064532037, 1.1246802223496295 -2.2374169168223212, 1.2499999999999925 -2.165063509461101 C1.3753197776503554 -2.0927101020998804, 1.4961171729167668 -2.008126855338242, 1.6069690242163412 -1.915111107797451 C1.7178208755159157 -1.82209536025666, 1.8220953602566472 -1.7178208755159294, 1.915111107797439 -1.6069690242163557 C2.0081268553382308 -1.496117172916782, 2.09271010209987 -1.3753197776503712, 2.1650635094610915 -1.2500000000000089 C2.237416916822313 -1.1246802223496466, 2.299738906453196 -0.9910302842862939, 2.3492315519647673 -0.855050358314182 C2.3987241974763385 -0.71907043234207, 2.4368913078579792 -0.5766288372196986, 2.462019382530518 -0.4341204441673369 C2.487147457203057 -0.29161205111497523, 2.4936698970884197 -0.07235340736123454, 2.5 -1.1714553645825241e-14 C2.5063301029115803 0.07235340736121111, 2.50633010291158 -0.07235340736122292, 2.5 0" stroke="none" stroke-width="0" fill="#000" style=""></path><path d="M2.5 0 C2.5 0.14470681472244193, 2.487147457203058 0.29161205111496386, 2.46201938253052 0.4341204441673258 C2.436891307857982 0.5766288372196877, 2.3987241974763416 0.7190704323420595, 2.3492315519647713 0.8550503583141718 C2.299738906453201 0.991030284286284, 2.2374169168223177 1.124680222349637, 2.165063509461097 1.2499999999999998 C2.092710102099876 1.3753197776503625, 2.0081268553382365 1.496117172916774, 1.915111107797445 1.6069690242163481 C1.8220953602566536 1.7178208755159223, 1.7178208755159226 1.8220953602566536, 1.6069690242163484 1.915111107797445 C1.4961171729167742 2.0081268553382365, 1.375319777650363 2.0927101020998755, 1.2500000000000002 2.1650635094610964 C1.1246802223496375 2.2374169168223172, 0.9910302842862845 2.2997389064532, 0.8550503583141721 2.349231551964771 C0.7190704323420597 2.3987241974763416, 0.576628837219688 2.436891307857982, 0.43412044416732604 2.46201938253052 C0.291612051114964 2.487147457203058, 0.14470681472244212 2.5, 1.5308084989341916e-16 2.5 C-0.1447068147224418 2.5, -0.2916120511149638 2.487147457203058, -0.43412044416732576 2.46201938253052 C-0.5766288372196877 2.436891307857982, -0.7190704323420595 2.3987241974763416, -0.8550503583141718 2.3492315519647713 C-0.991030284286284 2.299738906453201, -1.124680222349637 2.2374169168223177, -1.2499999999999996 2.165063509461097 C-1.375319777650362 2.092710102099876, -1.4961171729167733 2.008126855338237, -1.6069690242163475 1.9151111077974459 C-1.7178208755159217 1.8220953602566548, -1.822095360256653 1.7178208755159234, -1.9151111077974443 1.6069690242163495 C-2.0081268553382357 1.4961171729167755, -2.0927101020998746 1.3753197776503645, -2.1650635094610955 1.250000000000002 C-2.2374169168223164 1.1246802223496395, -2.2997389064531992 0.9910302842862865, -2.34923155196477 0.8550503583141743 C-2.3987241974763407 0.7190704323420621, -2.436891307857981 0.5766288372196907, -2.4620193825305194 0.434120444167329 C-2.487147457203058 0.29161205111496724, -2.5 0.14470681472244545, -2.5 3.636830773662308e-15 C-2.5 -0.14470681472243818, -2.4871474572030587 -0.2916120511149599, -2.4620193825305208 -0.4341204441673218 C-2.436891307857983 -0.5766288372196837, -2.398724197476343 -0.7190704323420553, -2.3492315519647726 -0.8550503583141675 C-2.2997389064532023 -0.9910302842862798, -2.23741691682232 -1.1246802223496328, -2.165063509461099 -1.2499999999999956 C-2.092710102099878 -1.3753197776503583, -2.00812685533824 -1.4961171729167695, -1.9151111077974488 -1.606969024216344 C-1.8220953602566576 -1.7178208755159183, -1.7178208755159263 -1.82209536025665, -1.6069690242163523 -1.9151111077974416 C-1.4961171729167784 -2.0081268553382334, -1.3753197776503672 -2.0927101020998724, -1.2500000000000047 -2.1650635094610937 C-1.1246802223496422 -2.237416916822315, -0.9910302842862897 -2.299738906453198, -0.8550503583141776 -2.3492315519647686 C-0.7190704323420656 -2.3987241974763394, -0.5766288372196942 -2.4368913078579806, -0.43412044416733236 -2.462019382530519 C-0.29161205111497057 -2.4871474572030574, -0.1447068147224489 -2.4999999999999996, -7.120580697431198e-15 -2.5 C0.14470681472243463 -2.5000000000000004, 0.29161205111495647 -2.487147457203059, 0.4341204441673183 -2.4620193825305217 C0.5766288372196802 -2.436891307857984, 0.7190704323420518 -2.3987241974763442, 0.8550503583141642 -2.349231551964774 C0.9910302842862766 -2.2997389064532037, 1.1246802223496295 -2.2374169168223212, 1.2499999999999925 -2.165063509461101 C1.3753197776503554 -2.0927101020998804, 1.4961171729167668 -2.008126855338242, 1.6069690242163412 -1.915111107797451 C1.7178208755159157 -1.82209536025666, 1.8220953602566472 -1.7178208755159294, 1.915111107797439 -1.6069690242163557 C2.0081268553382308 -1.496117172916782, 2.09271010209987 -1.3753197776503712, 2.1650635094610915 -1.2500000000000089 C2.237416916822313 -1.1246802223496466, 2.299738906453196 -0.9910302842862939, 2.3492315519647673 -0.855050358314182 C2.3987241974763385 -0.71907043234207, 2.4368913078579792 -0.5766288372196986, 2.462019382530518 -0.4341204441673369 C2.487147457203057 -0.29161205111497523, 2.4936698970884197 -0.07235340736123454, 2.5 -1.1714553645825241e-14 C2.5063301029115803 0.07235340736121111, 2.50633010291158 -0.07235340736122292, 2.5 0" stroke="#000" stroke-width="2" fill="none" stroke-dasharray="0 0" style=""></path></g></g></g><g class="node statediagram-note" id="x11-state-DETECTED----note-9" data-look="neo" transform="translate(740.765625, 438)"><g class="basic label-container outer-path"><path d="M-97.7109375 -75 L97.7109375 -75 L97.7109375 75 L-97.7109375 75" stroke="none" stroke-width="0" fill="#666" style=""></path><path d="M-97.7109375 -75 C-34.5968445554011 -75, 28.517248389197803 -75, 97.7109375 -75 M-97.7109375 -75 C-50.34560635442053 -75, -2.9802752088410642 -75, 97.7109375 -75 M97.7109375 -75 C97.7109375 -43.56792150859489, 97.7109375 -12.135843017189792, 97.7109375 75 M97.7109375 -75 C97.7109375 -32.91974482398066, 97.7109375 9.160510352038685, 97.7109375 75 M97.7109375 75 C55.03667955795195 75, 12.362421615903898 75, -97.7109375 75 M97.7109375 75 C31.13085071905806 75, -35.44923606188388 75, -97.7109375 75 M-97.7109375 75 C-97.7109375 43.326601168688825, -97.7109375 11.653202337377657, -97.7109375 -75 M-97.7109375 75 C-97.7109375 32.821989921429086, -97.7109375 -9.356020157141828, -97.7109375 -75" stroke="#999" stroke-width="1.3" fill="none" stroke-dasharray="0 0" style=""></path></g><g class="label noteLabel" style="" transform="translate(-82.7109375, -60)"><rect></rect><foreignObject width="165.421875" height="120"><div xmlns="http://www.w3.org/1999/xhtml" style="display: table; white-space: break-spaces; line-height: 1.5; max-width: 120px; text-align: center; width: 120px;"><span class="nodeLabel markdown-node-label"><p>Escalated once if not acknowledged<br/>within ackEscalationSeconds.<br/>Not a state change.</p></span></div></foreignObject></g></g></g></g></g><defs><filter id="x11-drop-shadow" height="130%" width="130%"><feDropShadow dx="4" dy="4" stdDeviation="0" flood-opacity="0.06" flood-color="#000000"></feDropShadow></filter></defs><defs><filter id="x11-drop-shadow-small" height="150%" width="150%"><feDropShadow dx="2" dy="2" stdDeviation="0" flood-opacity="0.06" flood-color="#000000"></feDropShadow></filter></defs><linearGradient id="x11-gradient" gradientUnits="objectBoundingBox" x1="0%" y1="0%" x2="100%" y2="0%"><stop offset="0%" stop-color="hsl(0, 0%, 83.3333333333%)" stop-opacity="1"></stop><stop offset="100%" stop-color="hsl(0, 0%, 88.9215686275%)" stop-opacity="1"></stop></linearGradient></svg>